Coordinates
version=1
nRows=13
nColumns=22
inDegrees=yes

Units are S.I. units (second, meters, Newtons, ...)
If the header above contains a line with 'inDegrees', this indicates whether rotational values are in degrees (yes) or radians (no).

endheader
time	pelvis_tilt	pelvis_list	pelvis_rotation	pelvis_tx	pelvis_ty	pelvis_tz	hip_flexion_r	hip_adduction_r	hip_rotation_r	knee_angle_r	ankle_angle_r	subtalar_angle_r	hip_flexion_l	hip_adduction_l	hip_rotation_l	knee_angle_l	ankle_angle_l	subtalar_angle_l	lumbar_extension	lumbar_bending	lumbar_rotation
      5.50000000	     -1.15669685	     -5.14503415	    281.03845217	     -0.42551421	      0.91705519	      0.68863501	     -3.69380672	     -6.12856326	     -1.42312409	    -52.24072724	    -10.97003381	     17.50718879	     14.61684519	     -5.27796551	    -42.53746821	    -26.00272529	      8.01921947	    -18.79995717	     -6.67559177	     -4.09865662	     13.27680334
      5.51000000	     -1.08226412	     -5.32983591	    281.91699870	     -0.42010305	      0.91769475	      0.69492591	     -2.31791178	     -5.80582859	     -0.42655953	    -54.93640800	    -11.52317180	     17.09813037	     14.08694837	     -4.91454639	    -41.84627108	    -26.15708111	      8.38013178	    -18.22707261	     -6.88637876	     -3.98744009	     12.83197111
      5.52000000	     -0.98910953	     -5.49699242	    282.80807844	     -0.41480572	      0.91832666	      0.70103362	     -0.94317162	     -5.44653804	      0.49016616	    -57.42776554	    -11.73778302	     16.65220408	     13.52764924	     -4.51327930	    -41.14415706	    -26.19381775	      8.64229687	    -17.53633587	     -7.08662464	     -3.90306906	     12.41319873
      5.53000000	     -0.84292326	     -5.66273449	    283.73501742	     -0.40952303	      0.91899015	      0.70701644	      0.39449778	     -5.13592479	      1.23761310	    -59.69287722	    -11.79651828	     16.28515205	     12.91773410	     -4.05379214	    -40.47967504	    -26.15052412	      8.87791707	    -16.86441270	     -7.29422393	     -3.87655995	     11.97964924
      5.54000000	     -0.67177776	     -5.80064385	    284.70021096	     -0.40422050	      0.91967842	      0.71287568	      1.71970967	     -4.86360865	      1.83038567	    -61.71008768	    -11.70036750	     15.99592867	     12.29523611	     -3.55066799	    -39.79709807	    -26.02594234	      9.07236731	    -16.21746380	     -7.47138234	     -3.87952889	     11.53963437
      5.55000000	     -0.49624002	     -5.90189972	    285.70034820	     -0.39889165	      0.92038171	      0.71859584	      3.04726718	     -4.62978492	      2.27288499	    -63.47294867	    -11.48591146	     15.74264316	     11.68849696	     -3.03078645	    -39.08259703	    -25.85153001	      9.24664949	    -15.57035992	     -7.60415246	     -3.89092863	     11.11513344
      5.56000000	     -0.31761099	     -5.95712627	    286.76937824	     -0.39345556	      0.92111842	      0.72416505	      4.36878777	     -4.45043963	      2.55374897	    -64.96171445	    -11.15786098	     15.58724590	     11.10653917	     -2.47115247	    -38.27328726	    -25.60381866	      9.36950439	    -15.05134483	     -7.68184529	     -3.90486811	     10.64745159
      5.57000000	     -0.15919355	     -5.97648624	    287.89749599	     -0.38794389	      0.92188209	      0.72958542	      5.67663250	     -4.30164912	      2.70176309	    -66.17083120	    -10.73773345	     15.48232497	     10.55399099	     -1.91706563	    -37.40230803	    -25.31792709	      9.47441740	    -14.62228850	     -7.71084554	     -3.89922776	     10.13077151
      5.58000000	     -0.03290074	     -5.95228265	    289.07055645	     -0.38243331	      0.92262250	      0.73480767	      6.99941228	     -4.17792665	      2.73952918	    -67.12335075	    -10.24891703	     15.36811158	     10.06545884	     -1.39174247	    -36.44749577	    -25.04040966	      9.56680704	    -14.20902454	     -7.68817070	     -3.87772376	      9.63928388
      5.59000000	      0.06122737	     -5.91346023	    290.30046490	     -0.37689009	      0.92338609	      0.73984602	      8.28618893	     -4.06748430	      2.68444899	    -67.79599559	     -9.68504003	     15.28582459	      9.59989108	     -0.89764798	    -35.43036821	    -24.74656000	      9.64904397	    -13.88155158	     -7.64373583	     -3.82438992	      9.10220511
      5.60000000	      0.12355966	     -5.86548824	    291.57470362	     -0.37136683	      0.92414515	      0.74468077	      9.53924248	     -3.96772247	      2.56036088	    -68.20375461	     -9.05999040	     15.21244542	      9.16136374	     -0.44524326	    -34.35809487	    -24.45782548	      9.72738750	    -13.60031340	     -7.58844623	     -3.74537485	      8.55045463
      5.61000000	      0.15783547	     -5.81850526	    292.88664311	     -0.36588597	      0.92489224	      0.74931158	     10.74764541	     -3.87710797	      2.38583891	    -68.35375380	     -8.38473445	     15.13382094	      8.73941874	     -0.03739258	    -33.24411793	    -24.17638196	      9.80749796	    -13.34502826	     -7.53722947	     -3.64342708	      7.98662897
      5.62000000	      0.17300298	     -5.78592109	    294.22741097	     -0.36046452	      0.92562505	      0.75375121	     11.89526565	     -3.79886096	      2.17618544	    -68.25510577	     -7.67837064	     15.04516247	      8.31437134	      0.32771998	    -32.10398668	    -23.89838698	      9.88967331	    -13.10932611	     -7.50803055	     -3.52439706	      7.41927167
